<svg xmlns="http://www.w3.org/2000/svg" width="29.392" height="20.99" viewBox="0 0 29.392 20.99">
  <path id="Path_2" data-name="Path 2" d="M84.3,7.683h8.314v5.454H84.3ZM94.913-.071h8.166V5.383H94.913Zm0,15.477h8.166v5.454H94.913Zm10.436-7.724h8.343v5.454h-8.343ZM87.72-.071c-1.739.442-3.1,2.388-3.42,4.864v.619h8.314V-.071ZM84.3,15.407v.678c.295,2.358,1.562,4.245,3.213,4.776h5.13V15.407ZM113.692,5.383V4.764c-.324-2.447-1.68-4.393-3.42-4.864h-4.923V5.354h8.343ZM110.479,20.89c1.621-.56,2.889-2.417,3.213-4.776v-.678h-8.343V20.89h5.13Z" transform="translate(-84.3 0.1)" fill="#ee3124"/>
</svg>
