<?xml version="1.0" encoding="utf-8"?>
<!-- Generator: Adobe Illustrator 22.0.1, SVG Export Plug-In . SVG Version: 6.00 Build 0)  -->
<svg version="1.1" id="Layer_1" xmlns="http://www.w3.org/2000/svg" xmlns:xlink="http://www.w3.org/1999/xlink" x="0px" y="0px"
	 viewBox="0 0 614.4 601" style="enable-background:new 0 0 614.4 601;" xml:space="preserve">
<style type="text/css">
	.st0{fill:none;stroke:#ffffff;stroke-width:19.9086;stroke-linecap:round;}
	.st1{fill:#ffffff;}
	.st2{fill:none;stroke:#ffffff;stroke-width:28.6186;stroke-linecap:round;stroke-linejoin:round;}
	.st3{fill:none;stroke:#ffffff;stroke-width:29.8629;stroke-linecap:round;}
</style>
<title>FortiDeceptor_Dk</title>
<g>
	<line class="st0" x1="432.5" y1="165.4" x2="371.5" y2="144.2"/>
	<line class="st0" x1="549.4" y1="205.2" x2="489.7" y2="185.3"/>
	<line class="st0" x1="483.5" y1="155.4" x2="532" y2="113.1"/>
	<line class="st0" x1="390.2" y1="236.3" x2="437.5" y2="195.2"/>
	<line class="st0" x1="466.1" y1="205.2" x2="478.5" y2="267.4"/>
	<line class="st0" x1="442.4" y1="82" x2="454.9" y2="145.5"/>
	<path class="st1" d="M432.5,257.4c0-3.7-1.2-7.5-3.7-10C379,195.2,379,195.2,379,195.2c-5-5-13.7-5-19.9,0
		c-13.7,12.4-13.7,12.4-13.7,12.4c-5-3.7-11.2-6.2-17.4-8.7c-17.4-6.2-34.8-8.7-52.3-8.7c-61,0-115.7,37.3-138.1,94.6
		c-13.7,36.1-12.4,77.1,3.7,112c3.7,10,10,18.7,14.9,27.4c24.9-16.2,24.9-16.2,24.9-16.2c-5-6.2-10-13.7-13.7-22.4
		c-12.4-28.6-13.7-61-2.5-90.8c17.4-44.8,62.2-75.9,110.7-75.9c13.7,0,28.6,2.5,42.3,7.5c7.5,2.5,14.9,7.5,22.4,11.2
		c5,3.7,12.4,3.7,17.4-1.2c10-10,10-10,10-10c29.9,31.1,29.9,31.1,29.9,31.1c-12.4,11.2-12.4,11.2-12.4,11.2c-5,5-6.2,11.2-3.7,17.4
		c14.9,29.9,16.2,62.2,5,93.3c-6.2,14.9-16.2,29.9-27.4,41.1c18.7,10,18.7,10,18.7,10c8.7,3.7,8.7,3.7,8.7,3.7
		c11.2-12.4,19.9-28.6,26.1-44.8c13.7-34.8,13.7-72.2,0-105.8c16.2-14.9,16.2-14.9,16.2-14.9C431.2,264.9,432.5,261.2,432.5,257.4
		L432.5,257.4z"/>
	<path class="st2" d="M109,471.5c16.2-24.9,84.6-70.9,136.9-72.2c47.3-1.2,79.6,6.2,133.1,49.8c5,3.7,13.7-1.2,21.2-1.2
		c24.9,0,48.5,3.7,67.2,11.2"/>
	<path class="st3" d="M67.9,398c0,82.1,0,82.1,0,82.1c0,21.2,12.4,42.3,33.6,42.3c374.5,0,374.5,0,374.5,0
		c21.2,0,39.8-21.2,39.8-42.3c0-82.1,0-82.1,0-82.1"/>
</g>
</svg>
