<svg id="Layer_1" data-name="Layer 1" xmlns="http://www.w3.org/2000/svg" xmlns:xlink="http://www.w3.org/1999/xlink" viewBox="0 0 577.17 439.67"><defs><clipPath id="clip-path"><rect x="122.17" width="332.61" height="439" style="fill:none"/></clipPath></defs><title>fortimanager_hover</title><rect x="196.57" y="182.83" width="181.8" height="20.66" style="fill:#fff"/><rect x="196.57" y="251.01" width="181.8" height="20.66" style="fill:#fff"/><rect x="196.57" y="319.17" width="181.8" height="20.66" style="fill:#fff"/><g style="clip-path:url(#clip-path)"><path d="M424.82,403.88c0,3.1-2.07,5.16-4.13,5.16H156.25c-2.07,0-4.13-2.06-4.13-5.16V60.94a4.44,4.44,0,0,1,4.13-4.13h32l11.36,45.45H377.3l11.36-45.45h32a4.45,4.45,0,0,1,4.13,4.13ZM364.91,56.81l-5.17,22.73H217.2L212,56.81ZM288.47,16.53c8.26,0,16.52,4.13,21.69,9.29H266.78c5.16-5.16,13.42-9.29,21.69-9.29m132.22,9.29h-90.9C322.56,10.33,306,0,288.47,0s-34.09,10.33-41.32,25.82h-90.9c-19.62,0-34.08,16.53-34.08,35.12V403.88c0,19.63,14.46,35.12,34.08,35.12H420.69c18.59,0,34.09-15.49,34.09-35.12V60.94c0-18.59-15.5-35.12-34.09-35.12" style="fill:#fff"/></g></svg>