<svg id="Layer_1" data-name="Layer 1" xmlns="http://www.w3.org/2000/svg" viewBox="0 0 373 373">
  <defs>
    <style>
      .cls-1 {
        fill: #306ab0;
      }
    </style>
  </defs>
  <title>FortiGate_Lt</title>
  <g>
    <path class="cls-1" d="M96.5,309.5a17.8,17.8,0,0,1-18-18V81.5a17.8,17.8,0,0,1,18-18,18.3,18.3,0,0,1,18,18v210a18.3,18.3,0,0,1-18,18Z"/>
    <path class="cls-1" d="M186.5,309.5a17.8,17.8,0,0,1-18-18V81.5a17.8,17.8,0,0,1,18-18,18.3,18.3,0,0,1,18,18v210a18.3,18.3,0,0,1-18,18Z"/>
    <path class="cls-1" d="M276.5,309.5a17.8,17.8,0,0,1-18-18V81.5a17.8,17.8,0,0,1,18-18,18.3,18.3,0,0,1,18,18v210a18.3,18.3,0,0,1-18,18Z"/>
  </g>
</svg>
