<svg id="Layer_1" data-name="Layer 1" xmlns="http://www.w3.org/2000/svg" xmlns:xlink="http://www.w3.org/1999/xlink" viewBox="0 0 807 774"><defs><clipPath id="clip-path"><rect x="71.7" y="50.67" width="664.09" height="672" style="fill:none"/></clipPath></defs><title>secfabric_hover</title><g style="clip-path:url(#clip-path)"><path d="M376.56,449.53a13.49,13.49,0,0,1-19.08,0L252.11,344.16a13.49,13.49,0,1,1,19.08-19.08L376.56,430.45a13.49,13.49,0,0,1,0,19.08" style="fill:#fff"/><path d="M555.11,628.07a13.48,13.48,0,0,1-19.09,0L430.66,522.71a13.49,13.49,0,0,1,19.08-19.08L555.11,609a13.49,13.49,0,0,1,0,19.08" style="fill:#fff"/><path d="M553.29,272.79a13.49,13.49,0,0,1-19.08,0L428.84,167.43a13.5,13.5,0,1,1,19.09-19.08L553.29,253.71a13.49,13.49,0,0,1,0,19.08" style="fill:#fff"/><path d="M731.84,451.34a13.49,13.49,0,0,1-19.08,0L607.39,346a13.5,13.5,0,0,1,19.08-19.09L731.84,432.26a13.49,13.49,0,0,1,0,19.08" style="fill:#fff"/><path d="M285.92,434.8,180.55,540.17a13.5,13.5,0,1,1-19.08-19.09L266.84,415.72a13.49,13.49,0,1,1,19.08,19.08" style="fill:#fff"/><path d="M464.47,256.25,359.1,361.62A13.49,13.49,0,1,1,340,342.54L445.39,237.17a13.49,13.49,0,1,1,19.08,19.08" style="fill:#fff"/><path d="M464.47,613.35,359.1,718.72A13.5,13.5,0,0,1,340,699.63L445.39,594.27a13.49,13.49,0,1,1,19.08,19.08" style="fill:#fff"/><path d="M643,434.8,537.65,540.17a13.49,13.49,0,0,1-19.08-19.08L623.94,415.72A13.49,13.49,0,1,1,643,434.8" style="fill:#fff"/><path d="M559.65,452.51a13.49,13.49,0,0,1-19.08,0L435.21,347.14a13.49,13.49,0,0,1,19.08-19.08L559.65,433.43a13.49,13.49,0,0,1,0,19.08" style="fill:#fff"/><path d="M381.53,630.63a13.49,13.49,0,0,1-19.08,0L257.08,525.27a13.49,13.49,0,0,1,19.08-19.08L381.53,611.55a13.49,13.49,0,0,1,0,19.08" style="fill:#fff"/><path d="M378.22,271.08a13.49,13.49,0,0,1-19.08,0L253.78,165.71a13.49,13.49,0,0,1,19.08-19.08L378.22,252a13.49,13.49,0,0,1,0,19.08" style="fill:#fff"/><path d="M200.1,449.2a13.49,13.49,0,0,1-19.08,0L75.65,343.84a13.5,13.5,0,1,1,19.08-19.09L200.1,430.12a13.49,13.49,0,0,1,0,19.08" style="fill:#fff"/><path d="M463.82,429.06,358.45,534.43a13.5,13.5,0,1,1-19.08-19.09L444.74,410a13.49,13.49,0,0,1,19.08,19.08" style="fill:#fff"/><path d="M642.37,250.52,537,355.88a13.49,13.49,0,0,1-19.08-19.08L623.29,231.43a13.5,13.5,0,0,1,19.08,19.09" style="fill:#fff"/><path d="M287,252.25,181.64,357.62a13.5,13.5,0,1,1-19.08-19.09L267.93,233.17A13.49,13.49,0,1,1,287,252.25" style="fill:#fff"/><path d="M465.56,73.71,360.19,179.07A13.49,13.49,0,1,1,341.11,160L446.48,54.62a13.5,13.5,0,0,1,19.08,19.09" style="fill:#fff"/></g></svg>