<svg id="Layer_1" data-name="Layer 1" xmlns="http://www.w3.org/2000/svg" viewBox="0 0 407.42 338.23"><title>forticlient-ems</title><path d="M278.94,295.54c-33.82,0-61.23-10.6-61.23-23.68v26.79c0,13.08,27.41,23.68,61.23,23.68s61.22-10.6,61.22-23.68V271.86C340.16,284.94,312.75,295.54,278.94,295.54Z" style="fill:#fff"/><path d="M278.94,255.54c-33.82,0-61.23-10.6-61.23-23.68v26.79c0,13.08,27.41,23.68,61.23,23.68s61.22-10.6,61.22-23.68V231.86C340.16,244.94,312.75,255.54,278.94,255.54Z" style="fill:#fff"/><rect x="116.97" y="142.47" width="40.59" height="26.87" style="fill:#fff"/><rect x="170.88" y="102.41" width="40.75" height="27.07" style="fill:#fff"/><rect x="170.88" y="183.22" width="32.83" height="26.79" style="fill:#fff"/><path d="M265.53,142.47l-40.27.32v13.38c12.31-6.5,40.27-6.5,40.27-6.5Z" style="fill:#fff"/><path d="M137.27,102.41c-13.24,0-20.3,8.13-20.3,20.83v6.24h40.59V102.41Z" style="fill:#fff"/><path d="M117,183.22V190c1.49,12.28,10.11,20,20.3,20h20.29V183.22Z" style="fill:#fff"/><path d="M265.53,129.48v-6.26c0-13-8.34-20.81-20.14-20.81l-20.13.32v27.06Z" style="fill:#fff"/><path d="M279.06,164.37c-33.81,0-61.22,10.6-61.22,23.68v26.79c0,13.08,27.41,23.68,61.22,23.68s61.22-10.6,61.22-23.68V188.05C340.28,175,312.87,164.37,279.06,164.37Z" style="fill:#fff"/><path d="M204.05,292.07c-7.18,3.47-11.74,5.16-11.74,5.16C84.26,244.18,92.6,195.76,92.6,195.76l-3.89-129s36.47-18.48,103.18-17.48S296.53,66.45,296.53,66.45l-2.37,83.22h19.2l3.32-104.78S261.27,22.14,191.89,22.14,67.14,44.89,67.14,44.89L72,198.34s-.18,75.59,119.91,123.83c4.2-1.69,8.24-3.41,12.15-5.16Z" style="fill:#fff"/></svg>