<svg id="Layer_1" data-name="Layer 1" xmlns="http://www.w3.org/2000/svg" xmlns:xlink="http://www.w3.org/1999/xlink" viewBox="0 0 319.83 264.58"><defs><clipPath id="clip-path"><rect x="31.59" y="1.68" width="257.58" height="259.49" style="fill:none"/></clipPath></defs><title>fortianalyzer_hover</title><g style="clip-path:url(#clip-path)"><path d="M198.22,26.48l-24.17,87.77L265,97.08a112.13,112.13,0,0,0-18.44-35.62,110.55,110.55,0,0,0-48.34-35m-42.61,6.36A104.37,104.37,0,0,0,51.3,137.15c0,57.24,47.06,103.67,104.31,103.67s104.3-46.43,104.3-103.67A91,91,0,0,0,258,118.7l-111.3,21L175.32,34.75a103.64,103.64,0,0,0-19.71-1.91m0,228.33c-68.69,0-124-56-124-124,0-68.69,55.33-124.66,124-124.66,8.27,0,17.17,1.27,25.43,2.54l3.82-13.35,9.54,2.54a125.39,125.39,0,0,1,67.42,45.16,123.49,123.49,0,0,1,24.8,54.06l2.55,10.17-11.45,1.91a119.23,119.23,0,0,1,1.91,21.63c0,68-55.34,124-124,124" style="fill:#fff"/></g></svg>