<?xml version="1.0" encoding="utf-8"?>
<!-- Generator: Adobe Illustrator 22.0.1, SVG Export Plug-In . SVG Version: 6.00 Build 0)  -->
<svg version="1.1" id="Layer_1" xmlns="http://www.w3.org/2000/svg" xmlns:xlink="http://www.w3.org/1999/xlink" x="0px" y="0px"
	 viewBox="0 0 496.4 578" style="enable-background:new 0 0 496.4 578;" xml:space="preserve">
<style type="text/css">
	.st0{clip-path:url(#SVGID_2_);}
	.st1{fill:#ffffff;}
</style>
<title>FortiDeceptor_Dk</title>
<g>
	<g>
		<defs>
			<rect id="SVGID_1_" x="45" y="57.5" width="413.7" height="479"/>
		</defs>
		<clipPath id="SVGID_2_">
			<use xlink:href="#SVGID_1_"  style="overflow:visible;"/>
		</clipPath>
		<g class="st0">
			<path class="st1" d="M223.5,503.7h55.9l-45.3,8 M279.4,536.5L279.4,536.5c-18.7-0.8-37.3-0.8-55.9,0c-9.8,0-17.8-6.2-20.4-16
				c-2.7-9.8-7-24.8-11.6-39c-7.1-27.5-19.5-72.7-25.7-79.8c-6.2-7.1-41.8-26.6-65.7-39.9c-16-8-32-16.8-45.3-24
				c-9.7-6.2-12.4-16.8-8-26.5C77.8,250,108,188,138.2,126.8L155,91.2c0.8-0.8,0.8-1.7,1.8-2.6l16.9-30.3l14.2,32
				c0,0.8,0.9,1.8,0.9,2.6l4.4,11.6c10.6,25.7,20.4,51.4,31.1,77.2h54.2c10.6-24.9,20.4-49.7,30.2-75.4l7.1-17.8l13.2-31.1L346,88.6
				c0.8,0.9,0.8,1.8,1.8,2.6l26.6,54.2c27.5,55,54.1,110.9,81.6,165.9c5.4,10.6,1.8,20.4-8,26.5c-12.5,7.1-28.4,16-43.5,23.9
				c-25.7,14.2-58.5,32-67.4,40.8c-8.9,8.8-18.6,49.7-25.8,77.2c-3.5,15.1-7.1,29.3-10.6,40.8C297.1,530.3,290,536.5,279.4,536.5z"
				/>
		</g>
	</g>
</g>
</svg>
