<svg id="Layer_1" data-name="Layer 1" xmlns="http://www.w3.org/2000/svg" viewBox="0 0 687.67 393.83"><title>fortigate_hover</title><path d="M23.42,351A22,22,0,0,1,1.17,328.7V69A22,22,0,0,1,23.42,46.76,22.57,22.57,0,0,1,45.68,69V328.7A22.57,22.57,0,0,1,23.42,351" style="fill:#fff"/><path d="M134.71,351a22,22,0,0,1-22.25-22.26V69a22,22,0,0,1,22.25-22.26A22.57,22.57,0,0,1,157,69V328.7A22.57,22.57,0,0,1,134.71,351" style="fill:#fff"/><path d="M246,351a22,22,0,0,1-22.26-22.26V69A22,22,0,0,1,246,46.76,22.56,22.56,0,0,1,268.26,69V328.7A22.56,22.56,0,0,1,246,351" style="fill:#fff"/><path d="M559.59,334.71a26.15,26.15,0,0,1-19.41,8.17c-7.15,0-13.27-3.06-18.39-8.17s-7.14-12.26-7.14-21.45c0-12.25,2-20.43,7.14-24.51,6.13-5.11,12.26-8.17,18.39-8.17,5.11,0,10.22,2,14.3,4.08,4.09,3.06,7.15,6.13,9.2,11.23,2,4.09,3.06,9.2,3.06,16.35,0,9.19-3.06,17.36-7.15,22.47m0-57.2a39.18,39.18,0,0,0-19.41-5.11c-10.21,0-19.4,3.07-25.53,10.22-7.15,7.15-10.21,17.36-10.21,29.62,0,7.15,1,13.28,4.08,19.41s7.15,11.23,13.27,14.3a35.65,35.65,0,0,0,36.78,0,27.94,27.94,0,0,0,13.28-13.28A46.43,46.43,0,0,0,577,312.24c0-8.17-1-15.32-4.09-20.43-3.07-6.13-7.15-11.23-13.28-14.3" style="fill:#fff"/><path d="M634.16,309.18c-3.07-1-9.2-2.05-17.37-4.09S603.51,301,602.49,299c-2-1-3.07-3.06-3.07-6.13a9.3,9.3,0,0,1,4.09-8.17c2-2,7.15-3.06,13.28-3.06s10.22,1,13.28,3.06c3.06,3.07,4.09,6.13,5.11,11.24l9.19-1a27.08,27.08,0,0,0-3.07-12.25c-3.06-3.06-6.12-6.13-10.21-7.15q-6.12-3.06-15.32-3.07a28.32,28.32,0,0,0-13.28,3.07c-4.08,1-7.15,4.09-10.21,7.15a20.6,20.6,0,0,0-3.07,11.23,16.53,16.53,0,0,0,3.07,9.2,19,19,0,0,0,8.17,7.15,49.64,49.64,0,0,0,14.3,4.08c7.15,2,11.24,3.07,13.28,4.09a22.14,22.14,0,0,1,7.15,4.08c1,2.05,2,4.09,2,6.13a14.82,14.82,0,0,1-2,7.16c-1,2-4.09,3.05-6.13,4.08-3.06,2-7.15,2-10.22,2-5.1,0-8.17-1-12.25-2-3.07-2-6.13-3.07-7.16-6.13q-3.06-3.06-3.06-9.19l-10.21,1c0,5.1,2,9.19,4.09,13.27a31.78,31.78,0,0,0,11.23,9.2,44.06,44.06,0,0,0,17.36,3.06,32.64,32.64,0,0,0,14.3-3.06,21.38,21.38,0,0,0,10.22-8.17c2-4.08,4.08-7.15,4.08-11.24s-1-8.17-4.08-11.23a24.13,24.13,0,0,0-9.19-8.17" style="fill:#fff"/><rect x="462.55" y="105.91" width="63.33" height="41.88" style="fill:#fff"/><rect x="543.25" y="46.67" width="63.33" height="41.88" style="fill:#fff"/><rect x="543.25" y="165.15" width="63.33" height="41.88" style="fill:#fff"/><rect x="623.94" y="105.91" width="63.33" height="41.88" style="fill:#fff"/><path d="M525.88,46.66H489.11c-13.28,4.09-24.51,18.39-26.56,37.8v4.08h63.33Z" style="fill:#fff"/><path d="M525.88,165.15H462.55v5.11C464.6,188.65,474.81,203,487.07,207h38.81Z" style="fill:#fff"/><path d="M660.71,46.66H623.94V88.54h63.33V84.46c-2-19.41-13.28-33.71-26.56-37.8" style="fill:#fff"/><path d="M623.94,207h38.81c12.26-4.09,22.48-18.38,24.52-36.77v-5.11H623.94Z" style="fill:#fff"/><line x1="370.07" y1="19.27" x2="370.07" y2="382.57" style="fill:#fff;stroke:#fff;stroke-linecap:round;stroke-linejoin:round;stroke-width:6.60893346330958px;stroke-dasharray:0,13.211304664611816"/><path d="M370.07,389.18h0m0-382.68h0" style="fill:none;stroke:#fff;stroke-linecap:round;stroke-linejoin:round;stroke-width:6.60893346330958px"/></svg>