<svg id="Layer_1" data-name="Layer 1" xmlns="http://www.w3.org/2000/svg" xmlns:xlink="http://www.w3.org/1999/xlink" viewBox="0 0 826.67 639.17"><defs><clipPath id="clip-path"><rect x="147.6" y="-0.17" width="531.48" height="639" style="fill:none"/></clipPath></defs><title>forticlient_hover</title><g style="clip-path:url(#clip-path)"><path d="M628.64,358.3C600.49,517.09,414.2,585.72,414.2,585.72,184.07,472.74,201.83,369.6,201.83,369.6L193.54,94.91S271.23,55.58,413.3,57.68,636.17,94.2,636.17,94.2ZM413.3-.17c-147.77,0-265.71,48.46-265.71,48.46L157.94,375.1s-.39,161,255.39,263.73C669.11,536.1,668.73,375.1,668.73,375.1L679.08,48.29S561.07-.17,413.3-.17" style="fill:#fff"/></g><rect x="253.73" y="256.11" width="86.45" height="57.23" style="fill:#fff"/><rect x="368.55" y="170.79" width="86.79" height="57.64" style="fill:#fff"/><rect x="368.55" y="342.9" width="86.79" height="57.06" style="fill:#fff"/><rect x="484.38" y="256.11" width="85.76" height="57.23" style="fill:#fff"/><g style="clip-path:url(#clip-path)"><path d="M297,170.79c-28.18,0-43.22,17.32-43.22,44.36v13.28h86.44V170.79Z" style="fill:#fff"/><path d="M253.74,342.9v14.34C256.91,383.42,275.26,400,297,400h43.22V342.9Z" style="fill:#fff"/><path d="M570.14,228.44V215.12c0-27.69-17.77-44.32-42.88-44.32H484.38v57.64Z" style="fill:#fff"/><path d="M527.26,400c22.38,0,42.88-15.72,42.88-41.75V342.9H484.38V400Z" style="fill:#fff"/></g></svg>