<svg id="Layer_1" data-name="Layer 1" xmlns="http://www.w3.org/2000/svg" viewBox="0 0 337.7 348">
  <defs>
    <style>
      .cls-1 {
        fill: #306ab0;
      }
    </style>
  </defs>
  <title>FortiWeb_Lt</title>
  <g>
    <path class="cls-1" d="M66,212.2a130.7,130.7,0,0,1,2.2-24L51.7,183c-3.7-1.5-6-6-5.2-10.5l9-26.3A8.2,8.2,0,0,1,66,141l15.7,5.2A154.6,154.6,0,0,1,111,105.8L101.2,93a8.5,8.5,0,0,1,1.5-12l22.5-16.5a9.4,9.4,0,0,1,12.1,2.3l8.2,12.7c14.3-6.7,33.8-12,45.8-15V48c0-4.5,6-8.2,10.5-8.2h27.7c4.5,0,9.8,3.7,9.8,8.2V64.5c17.9,3,31.4,7.5,45.7,15l8.2-12a8.6,8.6,0,0,1,11.3-2.3L327,81.8a9.3,9.3,0,0,1,2.2,12l-9,12a163.7,163.7,0,0,1,29.3,39.7l14.2-4.5a8.2,8.2,0,0,1,10.5,5.2l9,27a8.2,8.2,0,0,1-5.2,10.6l-15,4.4a130.7,130.7,0,0,1,2.2,24A127.1,127.1,0,0,1,363,237l15,5.2a8.2,8.2,0,0,1,5.2,10.6l-8.2,27c-1.5,3.7-6,6-10.5,5.2l-15.8-5.2a130.9,130.9,0,0,1-28.5,39l9.8,13.4c3,3.8,2.2,9-1.5,11.3L305.2,360c-3.7,3-8.2,2.2-11.2-1.5L285,345c-14.3,7.5-27.8,12.8-45.7,15v16.5c0,4.5-5.3,11.3-9.8,11.3H201.8c-4.5,0-10.5-6.8-10.5-11.3V360c-12-2.2-31.5-7.5-45.8-15l-9.7,14.2c-3,3.8-8.3,4.6-11.3,2.3l-23.3-17.3c-3-2.2-3.7-7.4-1.5-11.2l10.5-14.2a166.4,166.4,0,0,1-28.5-39L65.2,285c-3.7,1.5-9-.8-9.7-5.2l-9-27a8.2,8.2,0,0,1,5.2-10.6L68.2,237A127.1,127.1,0,0,1,66,212.2Zm25.5,0A123.8,123.8,0,1,0,215.3,88.5C147,88.5,91.5,144,91.5,212.2Z" transform="translate(-46 -39.8)"/>
    <path class="cls-1" d="M320.2,213A105.2,105.2,0,0,0,264,120h0c-15-7.5-31.5-12-48.7-12A105.2,105.2,0,0,0,153,128.2h0c-12.7,9-23.2,21.8-30.8,36h0A18.2,18.2,0,0,0,120,168h0c-6.8,13.5-9.8,29.2-9.8,45a109.6,109.6,0,0,0,12,49.5h0c2.3,3.7,4.5,7.5,6.8,11.3h0c7.5,10.4,17.3,20.2,28.5,27h0C174,312,194.3,318,215.3,318a122.5,122.5,0,0,0,22.5-2.2h0a21.6,21.6,0,0,1,6-1.6l.7-.7c2.3-.7,4.5-.7,6.8-1.5h0a131,131,0,0,0,35.2-21.8h0c20.2-19.4,33.7-46.4,33.7-77.2Zm-18-27c-1.5,3-3,6.8-5.2,11.2-13.5-5.2-30-14.2-43.5-27a83.2,83.2,0,0,1-18-26.2c2.3-1.5,3-4.5,3-8.2v-1.6a63,63,0,0,1,15-3.7A89.6,89.6,0,0,1,302.2,186ZM207,278.2a12,12,0,0,0-8.2-3.7,8.1,8.1,0,0,0-6,2.3c-12-11.3-23.3-24-31.5-39-4.5-9-7.5-18.8-9.8-27.8A176.5,176.5,0,0,1,165,189c1.5.8,3.8.8,6,.8a14.8,14.8,0,0,0,12.8-6.8c13.5,5.2,27,12,38.2,21.8A161.1,161.1,0,0,1,252,240c-3,3-5.2,6.8-5.2,11.2a20.3,20.3,0,0,0,1.5,6.8,55.2,55.2,0,0,0-6,3.8c-12,6.7-24,12.7-35.3,16.4ZM147.8,174.8c2.2,0,5.2.7,8.2.7a15.4,15.4,0,0,0,2.3,8.3c-3,4.4-6.8,9-9,13.4-1.5-7.4-1.5-15.7-1.5-22.4ZM272.2,237a16.8,16.8,0,0,0-8.2-2.2,10.1,10.1,0,0,0-4.5.7c-9-12.7-18.7-26.3-31.5-36.7s-27-18.8-41.2-24h0c0-3-1.5-5.3-2.3-8.3a137.6,137.6,0,0,1,33-24c2.3,3,5.3,5.3,9.8,5.3h0a100,100,0,0,0,20.2,28.4,121.4,121.4,0,0,0,45.7,28.6,194,194,0,0,1-21,32.2ZM233.3,126a10.4,10.4,0,0,0-5.3-1.5,3.1,3.1,0,0,0-.7-2.3l11.2,2.3a11.4,11.4,0,0,1-5.2,1.5Zm-18-4.5h3c.7,2.3.7,3.7,1.5,5.3-2.3,1.4-3.8,4.4-4.5,7.4a141.8,141.8,0,0,0-37.5,27c-1.5-1.4-4.5-2.2-6.8-2.2a15.7,15.7,0,0,0-13.5,8.2c-3-.7-6.7-.7-9.7-1.4a96.3,96.3,0,0,1,1.5-15.8,91.2,91.2,0,0,1,66-28.5ZM139.5,162a4.8,4.8,0,0,0-.7,3h-1.5a11.1,11.1,0,0,1,2.2-3Zm-15.8,51a87.5,87.5,0,0,1,9.1-39.8h6c0,11.3.7,23.3,3.7,35.3a356.2,356.2,0,0,0-14.2,33,87.7,87.7,0,0,1-4.6-28.5Zm9.8,41.2a319.7,319.7,0,0,1,12-33c2.3,6.8,5.3,13.6,8.3,20.3a158.5,158.5,0,0,0,33.7,42c0,.7-.7,1.5-.7,2.3-6.8,1.4-13.5,3.7-20.3,4.4a89.8,89.8,0,0,1-33-36Zm81.8,50.3a97.8,97.8,0,0,1-36.8-7.5,67.5,67.5,0,0,1,11.3-3,11.8,11.8,0,0,0,9,4.5c2.2,0,3.7-.7,6-2.3a69,69,0,0,0,12,8.3Zm-5.3-15v-3c12-4.5,24-10.5,36.8-17.3l6.7-4.4a18.1,18.1,0,0,0,10.5,3.7c.7,0,2.2-.7,3.7-.7,2.3,5.2,4.5,10.4,6,15A91.7,91.7,0,0,1,231.8,303,241.5,241.5,0,0,1,210,289.5Zm65.2-26.3a16.3,16.3,0,0,0,5.3-12,14.9,14.9,0,0,0-2.3-8.2c9.8-11.2,17.3-24,23.3-35.2,1.5.7,3,.7,4.5,1.4V213c0,24.8-9.8,46.5-25.5,63-1.5-3.8-3-8.2-5.3-12.8Z" transform="translate(-46 -39.8)"/>
  </g>
</svg>
