<svg xmlns="http://www.w3.org/2000/svg" xmlns:xlink="http://www.w3.org/1999/xlink" width="55.619" height="61.088"
     viewBox="0 0 55.619 61.088">
    <defs>
        <clipPath id="a">
            <rect width="55.619" height="61.088" fill="#fff"/>
        </clipPath>
    </defs>
    <g clip-path="url(#a)">
        <path d="M13.291,68.492V32.621L1.257,36.533A1.819,1.819,0,0,0,.089,38.825L13.982,81.564a1.819,1.819,0,0,0,2.293,1.168l25.6-8.323a1.82,1.82,0,0,0,1.078-.944l.037-.077H18.187a4.9,4.9,0,0,1-4.9-4.9"
              transform="translate(0 -21.733)" fill="#fff"/>
        <path d="M86.471,0H50.859a1.819,1.819,0,0,0-1.82,1.819v44.94a1.82,1.82,0,0,0,1.82,1.819H75.94V37.018a1.469,1.469,0,0,1,1.469-1.469H88.291V1.819A1.819,1.819,0,0,0,86.471,0m-19.8,35.288H57.929a1.364,1.364,0,1,1,0-2.729h8.743a1.364,1.364,0,0,1,0,2.729m12.759-7.434h-21.5a1.364,1.364,0,1,1,0-2.729h21.5a1.364,1.364,0,0,1,0,2.729m0-7.434h-21.5a1.364,1.364,0,1,1,0-2.729h21.5a1.364,1.364,0,0,1,0,2.729m0-7.434h-21.5a1.364,1.364,0,1,1,0-2.729h21.5a1.364,1.364,0,0,1,0,2.729"
              transform="translate(-32.671)" fill="#fff"/>
        <path d="M138.438,125.031a1.814,1.814,0,0,0,.219-.193l8.691-9.124a1.8,1.8,0,0,0,.281-.4h-9.192Z"
              transform="translate(-92.231 -76.824)" fill="#fff"/>
    </g>
</svg>