<svg id="Layer_1" data-name="Layer 1" xmlns="http://www.w3.org/2000/svg" xmlns:xlink="http://www.w3.org/1999/xlink" viewBox="0 0 322.9 378">
  <defs>
    <style>
      .cls-1, .cls-10, .cls-4, .cls-6 {
        fill: none;
      }

      .cls-2 {
        fill: #e0e3e3;
      }

      .cls-3 {
        clip-path: url(#clip-path);
      }

      .cls-10, .cls-4, .cls-6 {
        stroke: #333d47;
        stroke-miterlimit: 10;
      }

      .cls-4 {
        stroke-width: 8.33px;
      }

      .cls-5 {
        fill: #c2c4c7;
      }

      .cls-6 {
        stroke-width: 1.52px;
      }

      .cls-7 {
        fill: #d6d9d9;
      }

      .cls-8 {
        fill: #999ea3;
      }

      .cls-9 {
        fill: #858c91;
      }

      .cls-10 {
        stroke-width: 0.76px;
      }

      .cls-11 {
        font-size: 68.58px;
        fill: #003345;
        font-family: Lato-Bold, Lato;
        font-weight: 700;
      }
    </style>
    <clipPath id="clip-path" transform="translate(-0.8 0.5)">
      <rect class="cls-1" x="0.8" y="-0.5" width="322.9" height="378"/>
    </clipPath>
  </defs>
  <title>VM Cube</title>
  <polygon class="cls-2" points="4.2 97.3 4.2 280.7 161.9 373.2 318.8 280.7 318.8 97.3 161.9 4.8 4.2 97.3"/>
  <g class="cls-3">
    <polygon class="cls-4" points="161.9 4.8 318.8 97.3 318.8 280.7 161.9 373.2 4.2 280.7 4.2 97.3 161.9 4.8"/>
  </g>
  <polygon class="cls-5" points="3.3 97.1 3.3 281.1 161.5 188.3 161.5 4.4 3.3 97.1"/>
  <polygon class="cls-6" points="161.5 4.4 3.3 97.1 3.3 281.1 161.5 188.3 161.5 4.4"/>
  <polygon class="cls-2" points="161.5 188.3 318.8 281 318.8 97.1 161.5 4.4 161.5 188.3"/>
  <polygon class="cls-6" points="161.5 4.4 318.7 97.1 318.7 281 161.5 188.3 161.5 4.4"/>
  <polygon class="cls-2" points="3.3 280.9 161.5 373.6 161.5 189.7 3.3 97 3.3 280.9"/>
  <polygon class="cls-7" points="3.3 280.9 12.4 286.2 97.2 230.8 3.3 112.9 3.3 280.9"/>
  <polygon class="cls-5" points="4.6 280.8 161.5 373.3 161.5 189.7 160.3 189 4.6 280.8"/>
  <polygon class="cls-6" points="3.3 96.9 161.5 189.7 161.5 373.6 3.3 280.9 3.3 96.9"/>
  <polygon class="cls-8" points="161.5 189.7 161.5 373.6 318.8 280.9 318.8 97 161.5 189.7"/>
  <polygon class="cls-9" points="161.5 189.7 161.5 373.3 161.7 373.4 318.8 280.8 318.8 280.8 162.8 188.9 161.5 189.7"/>
  <polygon class="cls-6" points="318.8 97 161.5 189.7 161.5 373.6 318.8 280.9 318.8 97"/>
  <path class="cls-7" d="M10,96.7,162.5,7.1,315,96.7,162.5,187Zm-4.6,0L162.5,190,319.6,96.7,162.5,4.1Z" transform="translate(-0.8 0.5)"/>
  <path class="cls-10" d="M162.5,4.1,319.6,96.7,162.5,190,5.4,96.7Zm0,3L10,96.7,162.5,187,315,96.7Z" transform="translate(-0.8 0.5)"/>
  <g class="cls-3">
    <text class="cls-11" transform="matrix(1, 0.58, 0, 1, 26.59, 226.99)">V</text>
    <text class="cls-11" transform="matrix(1, 0.58, 0, 1, 74.24, 254.42)">M</text>
  </g>
</svg>
